# xmcd
# Track frame offsets:
# 150
# 17710
# 29785
# 41710
# 59785
# 78007
# 93235
# 111607
# 130435
# 147682
# 164482
# 179635
# 196135
# 211957
# 225985
#
# Disc length: 3153 seconds
# Revision: 0
# Processed by: cddbd v1.5.1PL0 Copyright (c) Steve Scherf et al.
# Submitted via: VisiTrax 2.9.10.228 - For more info visit www.synapsa.com
#
DISCID=e10c4f0f
DTITLE=Willie Nelson - LG031
DYEAR=1900
DGENRE=Karaoke
TTITLE0=Nelson, Willie - To All The Girls l've Loved Before
TTITLE1=Nelson, Willie - Blue Eyes Crying In The Rain
TTITLE2=Nelson, Willie - On The Road Again
TTITLE3=Nelson, Willie - Always On My Mind
TTITLE4=Nelson, Willie - Seven Spanish Angels
TTITLE5=Nelson, Willie - Funny How Time Slips Away
TTITLE6=Nelson, Willie - All Of Me
TTITLE7=Nelson, Willie - Poncho And Lefty
TTITLE8=Nelson, Willie - Whiskey River
TTITLE9=Nelson, Willie - Blue Skies
TTITLE10=Nelson, Willie - My Heroes Have Always Been Cowboys
TTITLE11=Nelson, Willie - Mama Don't Let Your Babies
TTITLE12=Nelson, Willie - Crazy
TTITLE13=Nelson, Willie - Good Hearted Woman, A
TTITLE14=Nelson, Willie - If You've Got The Money, I've Got The Time
EXTD=
EXTT0=
EXTT1=
EXTT2=
EXTT3=
EXTT4=
EXTT5=
EXTT6=
EXTT7=
EXTT8=
EXTT9=
EXTT10=
EXTT11=
EXTT12=
EXTT13=
EXTT14=
PLAYORDER=
